<mxfile host="Electron" agent="Mozilla/5.0 (Windows NT 10.0; Win64; x64) AppleWebKit/537.36 (KHTML, like Gecko) draw.io/28.1.2 Chrome/138.0.7204.243 Electron/37.4.0 Safari/537.36" version="28.1.2">
  <diagram name="HireIQ Pro Architecture" id="HireIQ-Architecture">
    <mxGraphModel dx="1895" dy="1313" grid="1" gridSize="10" guides="1" tooltips="1" connect="1" arrows="1" fold="1" page="1" pageScale="1" pageWidth="1654" pageHeight="1169" math="0" shadow="0">
      <root>
        <mxCell id="0" />
        <mxCell id="1" parent="0" />
        <mxCell id="title" value="HireIQ Pro - Architecture Diagram" style="text;html=1;strokeColor=none;fillColor=none;align=center;verticalAlign=middle;whiteSpace=wrap;rounded=0;fontSize=24;fontStyle=1;fontColor=#2E3440;" parent="1" vertex="1">
          <mxGeometry x="527" y="20" width="600" height="40" as="geometry" />
        </mxCell>
        <mxCell id="client-layer" value="Client Layer" style="swimlane;whiteSpace=wrap;html=1;fontSize=16;fontStyle=1;fillColor=#E1F5FE;strokeColor=#01579B;fontColor=#01579B;" parent="1" vertex="1">
          <mxGeometry x="100" y="69" width="300" height="150" as="geometry" />
        </mxCell>
        <mxCell id="react-frontend" value="&lt;b&gt;React Frontend v18&lt;br&gt;&lt;/b&gt;• TypeScript&lt;br&gt;• Material-UI&lt;br&gt;• Chart.js&amp;nbsp;" style="rounded=1;whiteSpace=wrap;html=1;fontSize=12;fillColor=#BBDEFB;strokeColor=#1976D2;fontColor=#0D47A1;" parent="client-layer" vertex="1">
          <mxGeometry x="20" y="55" width="260" height="70" as="geometry" />
        </mxCell>
        <mxCell id="api-layer" value="API Gateway Layer&amp;nbsp;" style="swimlane;whiteSpace=wrap;html=1;fontSize=16;fontStyle=1;fillColor=#F3E5F5;strokeColor=#7B1FA2;fontColor=#7B1FA2;" parent="1" vertex="1">
          <mxGeometry x="500" y="70" width="300" height="150" as="geometry" />
        </mxCell>
        <mxCell id="fastapi-backend" value="&lt;b&gt;FastAPI&lt;/b&gt;&amp;nbsp;&lt;br&gt;• CORS Configured&amp;nbsp;&lt;br&gt;• 13 API Routers Active" style="rounded=1;whiteSpace=wrap;html=1;fontSize=12;fillColor=#E1BEE7;strokeColor=#8E24AA;fontColor=#4A148C;" parent="api-layer" vertex="1">
          <mxGeometry x="20" y="50" width="260" height="70" as="geometry" />
        </mxCell>
        <mxCell id="business-layer" value="Core Business Logic APIs ✅" style="swimlane;whiteSpace=wrap;html=1;fontSize=16;fontStyle=1;fillColor=#E8F5E8;strokeColor=#388E3C;fontColor=#388E3C;" parent="1" vertex="1">
          <mxGeometry x="100" y="260" width="700" height="200" as="geometry" />
        </mxCell>
        <mxCell id="candidates-api" value="Candidates&#xa;API ✅" style="rounded=1;whiteSpace=wrap;html=1;fontSize=10;fillColor=#C8E6C9;strokeColor=#4CAF50;fontColor=#1B5E20;" parent="business-layer" vertex="1">
          <mxGeometry x="20" y="30" width="80" height="60" as="geometry" />
        </mxCell>
        <mxCell id="analytics-api" value="Analytics&#xa;API ✅" style="rounded=1;whiteSpace=wrap;html=1;fontSize=10;fillColor=#C8E6C9;strokeColor=#4CAF50;fontColor=#1B5E20;" parent="business-layer" vertex="1">
          <mxGeometry x="120" y="30" width="80" height="60" as="geometry" />
        </mxCell>
        <mxCell id="advanced-analytics-api" value="Advanced&#xa;Analytics ✅" style="rounded=1;whiteSpace=wrap;html=1;fontSize=10;fillColor=#C8E6C9;strokeColor=#4CAF50;fontColor=#1B5E20;" parent="business-layer" vertex="1">
          <mxGeometry x="220" y="30" width="80" height="60" as="geometry" />
        </mxCell>
        <mxCell id="bias-api" value="Bias Detection&#xa;API ✅" style="rounded=1;whiteSpace=wrap;html=1;fontSize=10;fillColor=#C8E6C9;strokeColor=#4CAF50;fontColor=#1B5E20;" parent="business-layer" vertex="1">
          <mxGeometry x="320" y="30" width="80" height="60" as="geometry" />
        </mxCell>
        <mxCell id="ai-copilot-api" value="AI Copilot&#xa;API ✅" style="rounded=1;whiteSpace=wrap;html=1;fontSize=10;fillColor=#C8E6C9;strokeColor=#4CAF50;fontColor=#1B5E20;" parent="business-layer" vertex="1">
          <mxGeometry x="420" y="30" width="80" height="60" as="geometry" />
        </mxCell>
        <mxCell id="chat-api" value="Chat&#xa;API ✅" style="rounded=1;whiteSpace=wrap;html=1;fontSize=10;fillColor=#C8E6C9;strokeColor=#4CAF50;fontColor=#1B5E20;" parent="business-layer" vertex="1">
          <mxGeometry x="520" y="30" width="80" height="60" as="geometry" />
        </mxCell>
        <mxCell id="interviews-api" value="Interviews&#xa;API ✅" style="rounded=1;whiteSpace=wrap;html=1;fontSize=10;fillColor=#C8E6C9;strokeColor=#4CAF50;fontColor=#1B5E20;" parent="business-layer" vertex="1">
          <mxGeometry x="620" y="30" width="80" height="60" as="geometry" />
        </mxCell>
        <mxCell id="resume-api" value="Resume&#xa;Analyzer ✅" style="rounded=1;whiteSpace=wrap;html=1;fontSize=10;fillColor=#C8E6C9;strokeColor=#4CAF50;fontColor=#1B5E20;" parent="business-layer" vertex="1">
          <mxGeometry x="20" y="110" width="80" height="60" as="geometry" />
        </mxCell>
        <mxCell id="notifications-api" value="Notifications&#xa;API ✅" style="rounded=1;whiteSpace=wrap;html=1;fontSize=10;fillColor=#C8E6C9;strokeColor=#4CAF50;fontColor=#1B5E20;" parent="business-layer" vertex="1">
          <mxGeometry x="120" y="110" width="80" height="60" as="geometry" />
        </mxCell>
        <mxCell id="reports-api" value="Reports&#xa;API ✅" style="rounded=1;whiteSpace=wrap;html=1;fontSize=10;fillColor=#C8E6C9;strokeColor=#4CAF50;fontColor=#1B5E20;" parent="business-layer" vertex="1">
          <mxGeometry x="220" y="110" width="80" height="60" as="geometry" />
        </mxCell>
        <mxCell id="calendar-api" value="Calendar&#xa;Integration ✅" style="rounded=1;whiteSpace=wrap;html=1;fontSize=10;fillColor=#C8E6C9;strokeColor=#4CAF50;fontColor=#1B5E20;" parent="business-layer" vertex="1">
          <mxGeometry x="320" y="110" width="80" height="60" as="geometry" />
        </mxCell>
        <mxCell id="personality-api" value="Personality&#xa;API ✅" style="rounded=1;whiteSpace=wrap;html=1;fontSize=10;fillColor=#C8E6C9;strokeColor=#4CAF50;fontColor=#1B5E20;" parent="business-layer" vertex="1">
          <mxGeometry x="420" y="110" width="80" height="60" as="geometry" />
        </mxCell>
        <mxCell id="feedback-api" value="Feedback&#xa;API ✅" style="rounded=1;whiteSpace=wrap;html=1;fontSize=10;fillColor=#C8E6C9;strokeColor=#4CAF50;fontColor=#1B5E20;" parent="business-layer" vertex="1">
          <mxGeometry x="520" y="110" width="80" height="60" as="geometry" />
        </mxCell>
        <mxCell id="ai-layer" value="AI &amp;amp; Intelligence Layer&amp;nbsp;" style="swimlane;whiteSpace=wrap;html=1;fontSize=16;fontStyle=1;fillColor=#FFF3E0;strokeColor=#F57C00;fontColor=#F57C00;" parent="1" vertex="1">
          <mxGeometry x="900" y="70" width="680" height="340" as="geometry" />
        </mxCell>
        <mxCell id="ai-orchestrator" value="&lt;b&gt;AI Orchestrator&amp;nbsp;&lt;br&gt;&lt;/b&gt;&lt;br&gt;• Central AI coordination&lt;br&gt;• Resume intelligence analysis&lt;br&gt;• Basic functionality active&lt;br&gt;• Ready for enhancement" style="rounded=1;whiteSpace=wrap;html=1;fontSize=11;fillColor=#FFE0B2;strokeColor=#FF9800;fontColor=#E65100;" parent="ai-layer" vertex="1">
          <mxGeometry x="20" y="49" width="150" height="111" as="geometry" />
        </mxCell>
        <mxCell id="langchain" value="&lt;b&gt;LangChain&amp;nbsp;&lt;/b&gt;&lt;br&gt;Framework Ready&lt;br&gt;&lt;br&gt;• Chain definitions prepared&lt;br&gt;• AI agents framework&lt;br&gt;• Memory management ready&lt;br&gt;• Awaiting full integration" style="rounded=1;whiteSpace=wrap;html=1;fontSize=11;fillColor=#FFF8E1;strokeColor=#FFC107;fontColor=#F57C00;arcSize=27;" parent="ai-layer" vertex="1">
          <mxGeometry x="190" y="30" width="140" height="140" as="geometry" />
        </mxCell>
        <mxCell id="langfuse" value="&lt;b&gt;Langfuse&amp;nbsp;&lt;/b&gt;&lt;div&gt;Monitoring Ready&lt;br&gt;&lt;br&gt;• Performance tracking ready&lt;br&gt;• Cost optimization prepared&lt;br&gt;• A/B testing framework&lt;br&gt;• Observability setup&lt;/div&gt;" style="rounded=1;whiteSpace=wrap;html=1;fontSize=11;fillColor=#FFF8E1;strokeColor=#FFC107;fontColor=#F57C00;" parent="ai-layer" vertex="1">
          <mxGeometry x="350" y="30" width="140" height="140" as="geometry" />
        </mxCell>
        <mxCell id="chromadb" value="&lt;b&gt;ChromaDB&amp;nbsp;&lt;br&gt;&lt;/b&gt;Vector Store Ready&lt;br&gt;&lt;br&gt;• Semantic search prepared&lt;br&gt;• Embeddings storage ready&lt;br&gt;• Similar candidates framework&lt;br&gt;• Database configured" style="rounded=1;whiteSpace=wrap;html=1;fontSize=11;fillColor=#FFF8E1;strokeColor=#FFC107;fontColor=#F57C00;" parent="ai-layer" vertex="1">
          <mxGeometry x="510" y="40" width="140" height="120" as="geometry" />
        </mxCell>
        <mxCell id="n8n-workflows" value="&lt;b&gt;n8n Workflow Engine&amp;nbsp;&lt;br&gt;&lt;/b&gt;&lt;br&gt;• Smart screening workflow&amp;nbsp;&lt;br&gt;• Interview scheduling workflow&amp;nbsp;&lt;br&gt;• Background check automation&lt;br&gt;• Onboarding automation ready" style="rounded=1;whiteSpace=wrap;html=1;fontSize=11;fillColor=#FFF8E1;strokeColor=#FFC107;fontColor=#F57C00;" parent="ai-layer" vertex="1">
          <mxGeometry x="20" y="190.5" width="200" height="100" as="geometry" />
        </mxCell>
        <mxCell id="sentence-transformers" value="&lt;b&gt;Sentence Transformers&amp;nbsp;&lt;br&gt;&lt;/b&gt;&lt;br&gt;• Text embeddings ready&lt;br&gt;• Semantic similarity prepared&lt;br&gt;• Multi-language support&lt;br&gt;• Vector generation ready" style="rounded=1;whiteSpace=wrap;html=1;fontSize=11;fillColor=#FFF8E1;strokeColor=#FFC107;fontColor=#F57C00;" parent="ai-layer" vertex="1">
          <mxGeometry x="240" y="180" width="180" height="121" as="geometry" />
        </mxCell>
        <mxCell id="workflow-definitions" value="&lt;b&gt;Workflow Definitions&amp;nbsp;&lt;br&gt;&lt;/b&gt;&lt;br&gt;• smart_candidate_screening.json&amp;nbsp;&lt;br&gt;• automated_interview_scheduling.json&amp;nbsp;&lt;div&gt;• Custom workflow templates&lt;br&gt;• JSON-based configuration&lt;/div&gt;" style="rounded=1;whiteSpace=wrap;html=1;fontSize=11;fillColor=#FFE0B2;strokeColor=#FF9800;fontColor=#E65100;" parent="ai-layer" vertex="1">
          <mxGeometry x="450" y="180" width="200" height="121" as="geometry" />
        </mxCell>
        <mxCell id="data-layer" value="Data Layer" style="swimlane;whiteSpace=wrap;html=1;fontSize=16;fontStyle=1;fillColor=#FAFAFA;strokeColor=#616161;fontColor=#616161;" parent="1" vertex="1">
          <mxGeometry x="100" y="480" width="700" height="120" as="geometry" />
        </mxCell>
        <mxCell id="candidates-data" value="&lt;b&gt;candidates.json&lt;br&gt;&lt;/b&gt;&lt;br&gt;Candidate profiles,&lt;br&gt;applications, status" style="rounded=1;whiteSpace=wrap;html=1;fontSize=11;fillColor=#F5F5F5;strokeColor=#9E9E9E;fontColor=#424242;" parent="data-layer" vertex="1">
          <mxGeometry x="20" y="30" width="150" height="70" as="geometry" />
        </mxCell>
        <mxCell id="interviews-data" value="&lt;b&gt;interviews.json&lt;br&gt;&lt;/b&gt;&lt;br&gt;Interview records,&lt;br&gt;scores, feedback" style="rounded=1;whiteSpace=wrap;html=1;fontSize=11;fillColor=#F5F5F5;strokeColor=#9E9E9E;fontColor=#424242;" parent="data-layer" vertex="1">
          <mxGeometry x="190" y="30" width="150" height="70" as="geometry" />
        </mxCell>
        <mxCell id="job-data" value="&lt;b&gt;job_description_full.json&lt;br&gt;&lt;/b&gt;&lt;br&gt;Job requirements,&lt;br&gt;skills, criteria" style="rounded=1;whiteSpace=wrap;html=1;fontSize=11;fillColor=#F5F5F5;strokeColor=#9E9E9E;fontColor=#424242;" parent="data-layer" vertex="1">
          <mxGeometry x="360" y="30" width="150" height="70" as="geometry" />
        </mxCell>
        <mxCell id="mock-data" value="&lt;b&gt;Mock Data&lt;br&gt;&lt;/b&gt;&lt;br&gt;Sample hiring data,&lt;br&gt;demographics, analytics" style="rounded=1;whiteSpace=wrap;html=1;fontSize=11;fillColor=#F5F5F5;strokeColor=#9E9E9E;fontColor=#424242;" parent="data-layer" vertex="1">
          <mxGeometry x="530" y="30" width="150" height="70" as="geometry" />
        </mxCell>
        <mxCell id="external-layer" value="External Services" style="swimlane;whiteSpace=wrap;html=1;fontSize=16;fontStyle=1;fillColor=#FFEBEE;strokeColor=#D32F2F;fontColor=#D32F2F;" parent="1" vertex="1">
          <mxGeometry x="900" y="480" width="680" height="120" as="geometry" />
        </mxCell>
        <mxCell id="azure-openai" value="&lt;b&gt;Azure OpenAI API&lt;br&gt;&lt;/b&gt;&lt;br&gt;GPT-4o, text analysis,&lt;br&gt;intelligent responses" style="rounded=1;whiteSpace=wrap;html=1;fontSize=11;fillColor=#FFCDD2;strokeColor=#F44336;fontColor=#B71C1C;" parent="external-layer" vertex="1">
          <mxGeometry x="20" y="30" width="150" height="70" as="geometry" />
        </mxCell>
        <mxCell id="calendar-services" value="&lt;b&gt;Calendar APIs (MOCK)&lt;br&gt;&lt;/b&gt;&lt;br&gt;Google Calendar,&lt;br&gt;Outlook integration" style="rounded=1;whiteSpace=wrap;html=1;fontSize=11;fillColor=#FFCDD2;strokeColor=#F44336;fontColor=#B71C1C;" parent="external-layer" vertex="1">
          <mxGeometry x="190" y="30" width="150" height="70" as="geometry" />
        </mxCell>
        <mxCell id="slack-integration" value="&lt;b&gt;Slack Integration (MOCK)&lt;br&gt;&lt;/b&gt;&lt;br&gt;Notifications,&lt;br&gt;team collaboration" style="rounded=1;whiteSpace=wrap;html=1;fontSize=11;fillColor=#FFCDD2;strokeColor=#F44336;fontColor=#B71C1C;" parent="external-layer" vertex="1">
          <mxGeometry x="360" y="30" width="150" height="70" as="geometry" />
        </mxCell>
        <mxCell id="linkedin-api" value="&lt;b&gt;LinkedIn API (MOCK)&lt;br&gt;&lt;/b&gt;&lt;br&gt;Candidate sourcing,&lt;br&gt;profile enrichment" style="rounded=1;whiteSpace=wrap;html=1;fontSize=11;fillColor=#FFCDD2;strokeColor=#F44336;fontColor=#B71C1C;" parent="external-layer" vertex="1">
          <mxGeometry x="530" y="30" width="150" height="70" as="geometry" />
        </mxCell>
        <mxCell id="deployment-layer" value="Deployment &amp; Infrastructure" style="swimlane;whiteSpace=wrap;html=1;fontSize=16;fontStyle=1;fillColor=#E3F2FD;strokeColor=#1565C0;fontColor=#1565C0;" parent="1" vertex="1">
          <mxGeometry x="100" y="640" width="700" height="120" as="geometry" />
        </mxCell>
        <mxCell id="docker-compose" value="&lt;b&gt;Docker Compose&lt;br&gt;&lt;/b&gt;&lt;br&gt;Multi-container setup&lt;br&gt;fair-hiring-network" style="rounded=1;whiteSpace=wrap;html=1;fontSize=11;fillColor=#BBDEFB;strokeColor=#1976D2;fontColor=#0D47A1;" parent="deployment-layer" vertex="1">
          <mxGeometry x="20" y="30" width="150" height="70" as="geometry" />
        </mxCell>
        <mxCell id="python-venv" value="&lt;b&gt;Python Virtual Env&lt;br&gt;&lt;/b&gt;&lt;br&gt;Isolated dependencies&lt;br&gt;Python 3.11" style="rounded=1;whiteSpace=wrap;html=1;fontSize=11;fillColor=#BBDEFB;strokeColor=#1976D2;fontColor=#0D47A1;" parent="deployment-layer" vertex="1">
          <mxGeometry x="190" y="30" width="150" height="70" as="geometry" />
        </mxCell>
        <mxCell id="npm-packages" value="&lt;b&gt;NPM Packages&lt;br&gt;&lt;/b&gt;&lt;br&gt;Node.js dependencies&lt;br&gt;React ecosystem" style="rounded=1;whiteSpace=wrap;html=1;fontSize=11;fillColor=#BBDEFB;strokeColor=#1976D2;fontColor=#0D47A1;" parent="deployment-layer" vertex="1">
          <mxGeometry x="360" y="30" width="150" height="70" as="geometry" />
        </mxCell>
        <mxCell id="dev-servers" value="&lt;b&gt;Development Servers&lt;br&gt;&lt;/b&gt;&lt;br&gt;Hot reload, debugging&lt;br&gt;CORS configuration" style="rounded=1;whiteSpace=wrap;html=1;fontSize=11;fillColor=#BBDEFB;strokeColor=#1976D2;fontColor=#0D47A1;" parent="deployment-layer" vertex="1">
          <mxGeometry x="530" y="30" width="150" height="70" as="geometry" />
        </mxCell>
        <mxCell id="fe-to-be" style="edgeStyle=orthogonalEdgeStyle;rounded=0;orthogonalLoop=1;jettySize=auto;html=1;strokeColor=#2196F3;strokeWidth=2;" parent="1" source="react-frontend" target="fastapi-backend" edge="1">
          <mxGeometry relative="1" as="geometry" />
        </mxCell>
        <mxCell id="fe-to-be-label" value="HTTP/REST API" style="edgeLabel;html=1;align=center;verticalAlign=middle;resizable=0;points=[];fontSize=10;fontColor=#1976D2;" parent="fe-to-be" vertex="1" connectable="0">
          <mxGeometry x="-0.1" y="1" relative="1" as="geometry">
            <mxPoint as="offset" />
          </mxGeometry>
        </mxCell>
      </root>
    </mxGraphModel>
  </diagram>
</mxfile>
